<?xml version="1.0" encoding="UTF-8"?>
<!DOCTYPE svg PUBLIC "-//W3C//DTD SVG 1.1//EN" "http://www.w3.org/Graphics/SVG/1.1/DTD/svg11.dtd">
<!-- Creator: CorelDRAW -->
<svg xmlns="http://www.w3.org/2000/svg" xml:space="preserve" width="69.0614mm" height="70.9504mm" version="1.1" style="shape-rendering:geometricPrecision; text-rendering:geometricPrecision; image-rendering:optimizeQuality; fill-rule:evenodd; clip-rule:evenodd"
viewBox="0 0 6906.14 7095.04"
 xmlns:xlink="http://www.w3.org/1999/xlink"
 xmlns:xodm="http://www.corel.com/coreldraw/odm/2003">
 <defs>
  <style type="text/css">
   <![CDATA[
    .fil3 {fill:#040709}
    .fil1 {fill:#080709}
    .fil8 {fill:#0B0D0B}
    .fil9 {fill:#12120C}
    .fil11 {fill:#1E1A17}
    .fil2 {fill:#AA2727}
    .fil10 {fill:#AC2B27}
    .fil4 {fill:#D4A373}
    .fil6 {fill:#ECB230}
    .fil0 {fill:#F1BC31}
    .fil7 {fill:#FDFDFD}
    .fil5 {fill:#FEFEFE}
   ]]>
  </style>
 </defs>
 <g id="Camada_x0020_1">
  <metadata id="CorelCorpID_0Corel-Layer"/>
  <g id="_1798037880128">
   <path class="fil0" d="M2831.18 4619.21c-70.81,-112.6 -6.09,-477.44 -278.92,-663.54l-157.86 -80.3c-27.99,-14.52 -30.18,-20.81 -45.03,-33.33 203.31,3.9 341.39,129.92 413.33,258.51 58.82,105.15 154.82,383.49 68.48,518.66zm2537.37 -732.19c-45.37,-25.66 -564.73,-844.16 -572.14,-863.79 118.12,53.15 261.24,293.28 329.55,402.27 72.41,115.6 198.68,313.1 242.59,461.52zm-4796.04 1035.79l0.28 37.52 1765.04 -2.11c856.37,16.82 1713.28,-90.58 2552.59,-80.36 52.39,-81.79 99.17,-298.27 242.45,-539.83 113.69,-191.63 199.27,-306.1 333.68,-452.92 28.47,-48.52 37.62,-24.76 3.42,-85.97 -104.62,-196.83 -261.4,-415.73 -389.27,-589.72 -66.74,-90.84 -148.93,-194.58 -217.69,-282.02 -69.66,-88.56 -157.04,-163.69 -202.08,-266.77 -119.72,36.59 -227.06,34.2 -283.75,66.63 -251.69,143.96 443.57,1127.41 275.84,2059.09l-38.89 -140.5c-355.36,51.3 -1225.69,103.64 -1583.29,76.09l-26.11 94.06c-5.95,-208.45 46.7,-343.25 -0.7,-577.81 -125.59,-621.31 -533.03,-742.91 -1154.51,-520.99 -342.8,122.42 -540.81,288.59 -759.28,476.29 -148.03,127.19 -443.99,466.54 -517.73,729.32z"/>
   <path class="fil1" d="M103.64 1679.87c532.3,33.42 1249.52,52.79 1780.05,17.86l55.54 1538.08c-553.16,-43.47 -1269.37,-5.39 -1824.86,26.81l-10.73 -1582.75zm2965.28 3017.84c-47.87,-98.83 119.19,-517.98 -251.92,-970.4 111.16,-49.19 388.8,-107.7 230.8,-384.41 122.56,-50.74 399.8,-201.29 460.99,-272.83l-379.9 1544.08c-35.74,112.31 28.5,47.43 -59.97,83.56zm-332.14 -1643.4c116.84,-314.97 156.01,-385.11 139.78,-772.36 88.72,86.53 139.07,462.33 163.52,613.64l-303.3 158.72zm1924.15 -393.68c47.26,-288.61 53.91,-254.49 185.37,-440.29l121.13 590.68c-108.66,-28.05 -237.96,-107.65 -306.5,-150.39zm-21.19 1980.51c-141.46,-42.12 -303.47,-14.21 -453.52,-13.73 -121.97,-22.49 52.31,-134.19 -307.34,-170.13 -154.03,-15.41 -259.69,-38.1 -382.05,-90.94 -23.42,-147.97 192.02,-688.95 245.73,-872.92 80.67,-276.37 190.79,-620.32 202.7,-931.96 133.42,20.11 573.49,26.7 658.06,81.62 -404.15,85.14 -437.85,-65.28 -173.02,836.5 113.94,388.04 209.3,724.64 209.44,1161.56zm-836.5 -2180.36c36.58,72.44 35.94,39.75 113.55,98.02 -35.72,276.79 -149.46,655.95 -233.72,923.95 -51.56,164.01 -287.44,757.01 -242.2,885.13 109.05,205.59 551.08,54.36 668.19,230.13 -39.56,45.37 5.68,41.08 -207.07,48.69 -87.3,3.11 -174.98,8.64 -262.33,13.02 -163.95,8.23 -335.06,16.37 -498.81,31.93 27.83,-154.99 296.08,-972.23 386.21,-1460.7 85.28,-462.3 129.78,-195.62 205.25,-422.12 -168.1,99.84 -340.86,337.49 -690.35,484.62 -222.65,93.76 -817.85,-27.01 -1074.9,-45.9l5.3 -185.68 593.43 239.75c59.61,-67.24 63.79,-93.78 103.38,-144.09 33.56,-42.68 532.39,-273.56 812.8,-494.68 54.42,-42.93 95.3,-83.78 141.01,-120.2 108.94,-86.76 86.56,-17.07 180.26,-81.87zm0 0c34.76,-172.09 37.15,-51.13 159.9,-81.12 62.42,-15.22 91.54,-91.45 143.17,-118.63 171.98,-90.58 263.96,62.44 217.8,226.17 -18.73,-74.61 35.49,-51.67 -28.3,-126.33 -22.43,85.11 -40.04,110.46 -108.44,155.27l22.94 -147.83c-3.96,4.24 -8.51,10.84 -10.58,13.82 -2.08,2.95 -7.78,10.28 -10.31,13.93 -3.42,5.02 -14.85,23.36 -18.73,29.14 -16.9,25.33 0.2,12.07 -27.88,42.65 -35.52,38.69 -42.84,41.67 -98.97,47 -93.92,8.93 -154.71,-35.94 -240.6,-54.07zm-722.28 395.02c-24.31,-219.4 -69.52,-367.96 -123.96,-539.01l659.3 167.43c-80.64,88.22 -402.64,319.53 -535.34,371.58zm1952.74 -774.78l110.62 762.74c-130.17,-17.49 -121.91,9.68 -141.99,-99.4l-100.12 -572.28 131.49 -91.06zm-399.07 517.53c-95.83,-63.99 -162.6,-44.39 -302.43,-47.53 86.45,-155.61 101.33,-203.82 -21.09,-343.2l338.79 -36.28 -15.27 427.01zm-2291.13 -1523.05c135.16,51.49 95.66,-4.66 153.16,153.36 56.3,154.79 125.43,285.21 187.2,417.26 -401.07,-124.69 -517.08,4.86 -706.61,228.64l-176.98 -753.97c200.2,-33.36 205.25,-70 92.41,-429.57 -27.07,-86.23 -40.6,-111.64 -16.76,-167.57l337.18 -26.75c135.23,202.72 76.94,204.94 287.41,341.11l-101.22 57.2 25.97 158.16c-130.17,-32.77 -155.64,-82.46 -225.8,-148.5 -1.57,93.16 54.53,136.51 144.04,170.63zm-829.9 69.97c-59.72,-177.29 -148.34,-203.57 -123.46,-483.98 62,-698.47 886.08,-657.98 966.19,-225.27 -173.61,3.42 -407.33,19.06 -548.28,80.41l112.99 518.38c-92.72,48.12 -283.65,87.1 -407.44,110.46zm-941.09 3777.34c73.74,-262.78 369.7,-602.13 517.73,-729.32 218.47,-187.7 416.48,-353.87 759.28,-476.29 621.48,-221.92 1028.92,-100.32 1154.51,520.99 47.4,234.56 -5.25,369.36 0.7,577.81l26.11 -94.06c357.6,27.55 1227.93,-24.79 1583.29,-76.09l38.89 140.5c167.73,-931.68 -527.53,-1915.13 -275.84,-2059.09 56.69,-32.43 164.03,-30.04 283.75,-66.63 45.04,103.08 132.42,178.21 202.08,266.77 68.76,87.44 150.95,191.18 217.69,282.02 127.87,173.99 284.65,392.89 389.27,589.72 30.38,-44.2 42.93,43.83 7.61,-81.71 -33.44,-118.88 -541.23,-784.53 -610.5,-873.14 93.02,24.34 197.42,70.79 290.44,23.56 59.27,-118.71 -47.09,-725.06 -112.03,-826.95 -94.6,25.49 -127.33,48.46 -192.95,114.7l-148.2 148.44c-22.99,-301.44 -86.9,-173.32 -449.75,-127.19 -179.5,22.83 -143.28,-0.11 -246.97,111.75 -61.8,66.66 -52.11,79.1 -140.08,-18.02 -48.94,-54.05 35.09,-39.59 -19.43,-13.54l-103.47 204.83c-243.49,-43.35 -515.76,-115.65 -740.78,-194.69 -171.13,-60.14 -512.39,-230.86 -639.44,-250.99 109.39,111.13 343.56,160.46 487.2,257.33 -13.84,571.75 -98.8,579.53 -280.78,956.62l-483.38 -165.97c-96.45,-34.85 -80,-10.36 -111.75,-77.47 -6.72,-236.36 -49.31,-720.2 -27.69,-927.35 11.12,-106.56 128.74,-256.78 180.57,-298 451.24,-358.75 1148.24,336.04 1706.12,469.52 -4.18,-4.83 -10.16,-10.83 -13.33,-13.7 -3.15,-2.86 -9.61,-9.85 -13.54,-13.2 -83.95,-72.02 -323.23,-173.83 -423.27,-223.1 -607.91,-299.37 -611,-224.26 -758.16,-571.98 -66.24,-156.45 -147.75,-326.66 -183.1,-498.07l192.82 -44.76c-64.64,-59.49 -158.2,-93.81 -221.34,-149.6 -65.96,-58.23 -104.26,-137.89 -150.05,-221.78l291.53 -19.38c87.38,-25.94 29.65,-8.45 61.41,-36.36l-214.4 -9.99 -36.28 -67.22c-78.73,-154.68 -185.65,-266.8 -372.31,-294.93 -677.07,-102.07 -830.74,862.02 -503.64,1076.28 62.03,40.63 181.84,21.17 261.27,1.12l95.43 529.24c-115.14,-37.76 -1604.11,-44.7 -1763.99,-7.8 -49.67,327.08 -41.13,1284.45 -1.63,1621.55 392.28,52.65 996.01,-10.64 1402.8,-14.18 -268.45,287.55 -14.82,381.52 180.57,467.47 -369.06,121.55 -1004.68,738.65 -1095.99,1076.2l3 106.13z"/>
   <path class="fil2" d="M754.09 3086.29c192.14,-153.53 305.46,-19.57 432.37,-43.12 -69.35,112.67 -125.59,54.1 -203.65,37.2 -60.56,-13.11 -69.66,49.08 -228.72,5.92zm-79.88 -388.43c-17.63,-643.6 -161.08,-223.05 -218.61,-523.84 -60.34,-315.54 234.81,-273.57 370.93,-360.27 104.82,-66.77 196.21,-55.43 290.89,9.6 100.29,68.88 -18.73,26.31 142.19,49.7 276.96,40.29 332.19,390.62 19.65,470.3l-21.68 356.23c-121.09,27.82 -465.44,30.13 -583.37,-1.72zm-559.84 564.76c555.49,-32.2 1271.7,-70.28 1824.86,-26.81l-55.54 -1538.08c-530.53,34.93 -1247.75,15.56 -1780.05,-17.86l10.73 1582.75z"/>
   <path class="fil0" d="M3848.11 2257.04l-13.4 -26.17c-557.88,-133.48 -1254.88,-828.27 -1706.12,-469.52 -51.83,41.22 -169.45,191.44 -180.57,298 -21.62,207.15 20.97,690.99 27.69,927.35 31.75,67.11 15.3,42.62 111.75,77.47l483.38 165.97c181.98,-377.09 266.94,-384.87 280.78,-956.62 -143.64,-96.87 -377.81,-146.2 -487.2,-257.33 127.05,20.13 468.31,190.85 639.44,250.99 225.02,79.04 497.29,151.34 740.78,194.69l103.47 -204.83z"/>
   <path class="fil3" d="M1473.45 5031.14l470.58 -11.65c-109.14,434.28 -572.36,356.19 -470.58,11.65zm4436.08 -534.66c-3.57,127.78 -89.93,315.76 -140.61,406.06 -122.76,218.76 -443.8,370.97 -384.17,-74.21 28.9,-215.89 142.02,-222.6 524.78,-331.85zm-965.46 436.53c23.42,-179.14 145,-421.14 220.36,-564.29 62.33,-118.46 229.31,-442.81 376.83,-442.81 418.05,0 675.27,175.54 824.62,480.3 -434.73,7.86 -793.14,97.62 -1140.07,333.09 -98.56,66.88 -195.96,149.45 -281.74,193.71zm522.48 -1047.9c-134.41,146.82 -219.99,261.29 -333.68,452.92 -143.28,241.56 -190.06,458.04 -242.45,539.83 -839.31,-10.22 -1696.22,97.18 -2552.59,80.36l-1722.61 18.92c64.86,38.81 348.25,41.08 567,41.08 -23.5,186.05 -65.16,275.87 61.47,435.18 189.49,238.41 632.39,188.12 826.19,-65.5 40.18,-52.57 76.68,-105.91 109.39,-177.48 62.56,-136.86 31.19,-167.99 105.15,-184.79 880.95,0 1734.77,-73.11 2601.73,-117.25l-25.36 165.3 176.11 -126.78c16.65,271.18 -5.45,413.37 207.46,524.5 192.96,100.71 386.36,31.92 523.32,-71.37 228.75,-172.52 493.02,-519.14 497.34,-954.09l129.98 -32.88c-33.36,-183.83 -208.23,-339.69 -337.22,-420.86 -233.58,-146.99 -325.17,-100.21 -591.23,-107.09z"/>
   <path class="fil2" d="M3803.24 2460.78c-93.7,64.8 -71.32,-4.89 -180.26,81.87 -45.71,36.42 -86.59,77.27 -141.01,120.2 -280.41,221.12 -779.24,452 -812.8,494.68 -39.59,50.31 -43.77,76.85 -103.38,144.09l-593.43 -239.75 -5.3 185.68c257.05,18.89 852.25,139.66 1074.9,45.9 349.49,-147.13 522.25,-384.78 690.35,-484.62 -75.47,226.5 -119.97,-40.18 -205.25,422.12 -90.13,488.47 -358.38,1305.71 -386.21,1460.7 163.75,-15.56 334.86,-23.7 498.81,-31.93 87.35,-4.38 175.03,-9.91 262.33,-13.02 212.75,-7.61 167.51,-3.32 207.07,-48.69 -117.11,-175.77 -559.14,-24.54 -668.19,-230.13 -45.24,-128.12 190.64,-721.12 242.2,-885.13 84.26,-268 198,-647.16 233.72,-923.95 -77.61,-58.27 -76.97,-25.58 -113.55,-98.02z"/>
   <path class="fil4" d="M2223.6 635.23c7.22,30.97 0.26,11.63 -12.12,40.47 -36.98,-35.66 -50.83,-24.99 -22.13,-83.31 17.91,14.85 17.38,-29.62 34.25,42.84zm-347.68 -111.58c-23.84,55.93 -10.31,81.34 16.76,167.57 112.84,359.57 107.79,396.21 -92.41,429.57l176.98 753.97c189.53,-223.78 305.54,-353.33 706.61,-228.64 -61.77,-132.05 -130.9,-262.47 -187.2,-417.26 -57.5,-158.02 -18,-101.87 -153.16,-153.36 -89.51,-34.12 -145.61,-77.47 -144.04,-170.63 70.16,66.04 95.63,115.73 225.8,148.5l-25.97 -158.16 101.22 -57.2c-210.47,-136.17 -152.18,-138.39 -287.41,-341.11l-337.18 26.75z"/>
   <path class="fil0" d="M4944.07 4933.01c85.78,-44.26 183.18,-126.83 281.74,-193.71 346.93,-235.47 705.34,-325.23 1140.07,-333.09 -149.35,-304.76 -406.57,-480.3 -824.62,-480.3 -147.52,0 -314.5,324.35 -376.83,442.81 -75.36,143.15 -196.94,385.15 -220.36,564.29z"/>
   <path class="fil2" d="M1513.6 1145.47c123.79,-23.36 314.72,-62.34 407.44,-110.46l-112.99 -518.38c140.95,-61.35 374.67,-76.99 548.28,-80.41 -80.11,-432.71 -904.19,-473.2 -966.19,225.27 -24.88,280.41 63.74,306.69 123.46,483.98z"/>
   <path class="fil5" d="M5913.21 6364.11c16.56,104.17 27.85,237.62 -68.17,252.22 -134.67,20.44 -324.16,-563.18 -184.93,-707.28 131.91,4.88 91,80.05 169.59,196.32l203.49 -104.76c-24.94,-91.76 -41.22,-193.54 -87.8,-263.59 -364.09,14.65 -702.26,261.6 -611.71,666 88.95,397.19 520.31,543.76 664.07,154.74 123.26,92.97 52.65,46.72 222.55,-3.51l-109.31 -409.57c-104.23,29.76 -323.49,105.85 -321.32,217.71 61.01,43.05 27.99,8.91 123.54,1.72z"/>
   <path class="fil2" d="M1243.12 2344.84c107.57,-71.93 275.7,-177.25 130.01,-348.5 -51.98,-61.13 -107.99,-54.02 -201.86,-81.26 -90.88,-26.39 -95.15,-76.12 -197.33,-79.82l-403.9 148.95c-208.08,204.43 105.41,348.28 124.81,360.18l15.97 195.87 508.41 -7.91 23.89 -187.51z"/>
   <path class="fil5" d="M3235.7 5840.23l-288.08 1.8 -191.12 960.4 290.46 -3c11.74,-95.8 34.31,-191.16 52.73,-285.39 26.65,-136.51 16.09,-184.5 135.65,-201.65 62.27,115.51 -35.66,344.32 -56.19,486.98l270.14 -5.92c55.82,-94.79 131.82,-455.34 79.66,-556.84 -117.43,-134.86 -262.25,-26.59 -373.86,24.82l80.61 -421.2z"/>
   <path class="fil5" d="M2293.18 6661.93c-46.69,-74.07 -22.91,-106.64 2.44,-217.46 25.3,-110.69 21.6,-117.99 135.65,-130.17 24.17,120.11 6.34,349.62 -138.09,347.63zm-56.58 48.24c79.41,41.95 187.54,145.75 325.48,73.25 272.56,-143.22 254.56,-877.29 -230.12,-520.51 -41.53,-49.27 -31.81,-74.43 -118.86,-79.32 -147.41,-0.28 -148.81,-29.56 -180.06,117.9 -17.69,83.51 -31,155.16 -48.77,237.94 -35.21,163.89 -79.46,329.6 -100.66,496.39l287.69 -8.46 65.3 -317.19z"/>
   <path class="fil5" d="M1090.83 6087.23l23.92 367.91 -198.48 -12.08 174.56 -355.83zm-230.86 468.03l261.94 3.71 23.03 228.22 330.61 3.03 -80.69 -901.86 -342.86 -3.96 -420.69 889.84 122.89 5.39 105.77 -224.37z"/>
   <path class="fil5" d="M6367.87 5689.65c152.16,17.91 295.52,243.35 270.7,390.48 -176.38,-9.6 -290.27,-249.87 -270.7,-390.48zm459.05 268.62c156.65,-397.16 -406.51,-706.72 -639.95,-163.13 -86.82,202.1 41.1,438.35 213.67,473.39 192.92,39.17 375.6,-181.75 426.28,-310.26z"/>
   <path class="fil5" d="M3852.52 6649.83c-15.36,-140.31 22.43,-173.92 160.77,-169.14 -18.76,116.58 -28.84,182.59 -160.77,169.14zm0.89 -299.99c43.89,-53.34 40.32,-101.36 120.01,-97.03 91.87,4.97 68.65,83.47 54.08,136.93 -172.91,72.75 -456.83,-10.02 -455.2,234.48 1.09,163.27 203.54,261.32 393.96,71.82 42.37,43.19 26.84,93.34 172.37,89.38 122.67,-3.34 108.21,-12.64 128.51,-101.84 24.4,-107.12 74.41,-328.18 25.08,-425.3 -64.84,-127.64 -621.48,-201.32 -623.22,97.35l184.41 -5.79z"/>
   <polygon class="fil5" points="2022.29,5837.14 1732.38,5834.76 1524.07,6790.11 1812.85,6792.24 "/>
   <path class="fil2" d="M5909.53 4496.48c-382.76,109.25 -495.88,115.96 -524.78,331.85 -59.63,445.18 261.41,292.97 384.17,74.21 50.68,-90.3 137.04,-278.28 140.61,-406.06z"/>
   <path class="fil6" d="M718.12 2590.21l403.82 -2.33c127.14,5.14 66.04,-9.04 96.62,42.23 -38.36,26.37 -18.76,28.56 -121.44,31l-289.48 0.62c-132,-8.2 -79.91,10.56 -89.52,-71.52zm525 -245.37l-23.89 187.51 -508.41 7.91 -15.97 -195.87c-19.4,-11.9 -332.89,-155.75 -124.81,-360.18l403.9 -148.95c102.18,3.7 106.45,53.43 197.33,79.82 93.87,27.24 149.88,20.13 201.86,81.26 145.69,171.25 -22.44,276.57 -130.01,348.5zm-568.91 353.02c117.93,31.85 462.28,29.54 583.37,1.72l21.68 -356.23c312.54,-79.68 257.31,-430.01 -19.65,-470.3 -160.92,-23.39 -41.9,19.18 -142.19,-49.7 -94.68,-65.03 -186.07,-76.37 -290.89,-9.6 -136.12,86.7 -431.27,44.73 -370.93,360.27 57.53,300.79 200.98,-119.76 218.61,523.84z"/>
   <path class="fil2" d="M1473.45 5031.14c-101.78,344.54 361.44,422.63 470.58,-11.65l-470.58 11.65z"/>
   <path class="fil0" d="M4311.11 2207.82c122.42,139.38 107.54,187.59 21.09,343.2 139.83,3.14 206.6,-16.46 302.43,47.53l15.27 -427.01 -338.79 36.28z"/>
   <path class="fil0" d="M4660.93 2660.63c68.54,42.74 197.84,122.34 306.5,150.39l-121.13 -590.68c-131.46,185.8 -138.11,151.68 -185.37,440.29z"/>
   <path class="fil0" d="M4902.21 2172.08l100.12 572.28c20.08,109.08 11.82,81.91 141.99,99.4l-110.62 -762.74 -131.49 91.06z"/>
   <path class="fil2" d="M2736.78 3054.31l303.3 -158.72c-24.45,-151.31 -74.8,-527.11 -163.52,-613.64 16.23,387.25 -22.94,457.39 -139.78,772.36z"/>
   <path class="fil7" d="M4527.23 5738.05c195.81,28.81 66.94,-27.31 182,-102.73 118.01,180.03 -190.37,250.59 -225.3,370.71 102.37,0 265.25,23.61 339.21,-23.98 -4.21,-137.16 12.64,-21.96 -111.64,-89.03 82.02,-48.47 246.78,-173.3 105.46,-279.77 -29.06,-21.9 -242.51,-101.98 -289.73,124.8z"/>
   <path class="fil4" d="M3803.24 2460.78c85.89,18.13 146.68,63 240.6,54.07 56.13,-5.33 63.45,-8.31 98.97,-47 28.08,-30.58 10.98,-17.32 27.88,-42.65 3.88,-5.78 15.31,-24.12 18.73,-29.14 2.53,-3.65 8.23,-10.98 10.31,-13.93 2.07,-2.98 6.62,-9.58 10.58,-13.82l-22.94 147.83c68.4,-44.81 86.01,-70.16 108.44,-155.27 63.79,74.66 9.57,51.72 28.3,126.33 46.16,-163.73 -45.82,-316.75 -217.8,-226.17 -51.63,27.18 -80.75,103.41 -143.17,118.63 -122.75,29.99 -125.14,-90.97 -159.9,81.12z"/>
   <path class="fil8" d="M2831.18 4619.21c86.34,-135.17 -9.66,-413.51 -68.48,-518.66 -71.94,-128.59 -210.02,-254.61 -413.33,-258.51 14.85,12.52 17.04,18.81 45.03,33.33l157.86 80.3c272.83,186.1 208.11,550.94 278.92,663.54z"/>
   <path class="fil9" d="M5368.55 3887.02c-43.91,-148.42 -170.18,-345.92 -242.59,-461.52 -68.31,-108.99 -211.43,-349.12 -329.55,-402.27 7.41,19.63 526.77,838.13 572.14,863.79z"/>
   <path class="fil10" d="M1121.94 2587.88l-403.82 2.33c9.61,82.08 -42.48,63.32 89.52,71.52l289.48 -0.62c102.68,-2.44 83.08,-4.63 121.44,-31 -30.58,-51.27 30.52,-37.09 -96.62,-42.23z"/>
   <path class="fil0" d="M754.09 3086.29c159.06,43.16 168.16,-19.03 228.72,-5.92 78.06,16.9 134.3,75.47 203.65,-37.2 -126.91,23.55 -240.23,-110.41 -432.37,43.12z"/>
   <path class="fil11" d="M2211.48 675.7c12.38,-28.84 19.34,-9.5 12.12,-40.47 -16.87,-72.46 -16.34,-27.99 -34.25,-42.84 -28.7,58.32 -14.85,47.65 22.13,83.31z"/>
  </g>
 </g>
</svg>
